# xmcd
#
# Track frame offsets: 
#        150
#        5677
#        15909
#        27698
#        41241
#        51870
#        63409
#        69163
#        79498
#        94284
#        105934
#        121503
#        134188
#
# Disc length: 1872 seconds
#
# Revision: 0
# Processed by: cddbd v1.5.2PL0 Copyright (c) Steve Scherf et al.
# Submitted via: ExactAudioCopy v0.99pb5
#
DISCID=ad074e0d
DTITLE=The Beatles  - Telecasts - Disc 5
DYEAR=1900
DGENRE=
TTITLE0=Intro
TTITLE1=She Loves You
TTITLE2=You Can't Do That
TTITLE3=Twist And Shout
TTITLE4=Long Tall Sally
TTITLE5=Can't But Me Love
TTITLE6=Intro
TTITLE7=I Feel Fine
TTITLE8=She's A Woman
TTITLE9=Baby's In Black
TTITLE10=Ticket To Ride
TTITLE11=Long Tall Sally
TTITLE12=Outro
EXTD=
EXTT0=
EXTT1=
EXTT2=
EXTT3=
EXTT4=
EXTT5=
EXTT6=
EXTT7=
EXTT8=
EXTT9=
EXTT10=
EXTT11=
EXTT12=
PLAYORDER=
